<svg width="103" height="32" viewBox="0 0 103 32" fill="none" xmlns="http://www.w3.org/2000/svg">
<path d="M99.5999 32H3.5999C1.8399 32 0.399902 30.56 0.399902 28.8V3.2C0.399902 1.44 1.8399 0 3.5999 0H99.5999C101.36 0 102.8 1.44 102.8 3.2V28.8C102.8 30.56 101.36 32 99.5999 32Z" fill="white"/>
<path d="M21.9999 15.8402C21.9999 13.3602 24.0799 12.1602 24.1599 12.0802C22.9599 10.4002 21.1999 10.1602 20.5599 10.0802C19.0399 9.92021 17.5199 10.9602 16.7999 10.9602C15.9999 10.9602 14.7999 10.0802 13.5199 10.0802C11.8399 10.0802 10.3199 11.0402 9.43991 12.5602C7.67991 15.6002 8.95991 20.0802 10.6399 22.5602C11.5199 23.7602 12.4799 25.1202 13.7599 25.0402C15.0399 24.9602 15.5199 24.2402 17.0399 24.2402C18.5599 24.2402 18.9599 25.0402 20.3199 25.0402C21.6799 25.0402 22.5599 23.8402 23.3599 22.6402C24.3199 21.2802 24.7199 19.9202 24.7199 19.8402C24.6399 19.7602 21.9999 18.8002 21.9999 15.8402Z" fill="black"/>
<path d="M19.5199 8.48027C20.1599 7.60027 20.6399 6.48027 20.5599 5.28027C19.5999 5.36027 18.3199 5.92027 17.6799 6.80027C17.0399 7.52027 16.4799 8.72027 16.6399 9.84027C17.6799 9.92027 18.7999 9.28027 19.5199 8.48027Z" fill="black"/>
<path d="M40.2401 24.8796H38.4801L37.5201 21.8396H34.1601L33.2801 24.8796H31.6001L34.9601 14.5596H37.0401L40.2401 24.8796ZM37.2001 20.5596L36.3201 17.8396C36.2401 17.5996 36.0801 16.8796 35.7601 15.9196C35.6801 16.3196 35.5201 17.0396 35.2801 17.8396L34.4001 20.5596H37.2001Z" fill="black"/>
<path d="M48.8001 21.1204C48.8001 22.4004 48.4801 23.3604 47.7601 24.1604C47.1201 24.8004 46.4001 25.1204 45.4401 25.1204C44.4801 25.1204 43.7601 24.8003 43.3601 24.0803V28.0004H41.6801V20.0004C41.6801 19.2004 41.6801 18.4004 41.6001 17.5204H43.0401L43.1201 18.7204C43.6801 17.8404 44.4801 17.3604 45.6001 17.3604C46.4801 17.3604 47.2001 17.6804 47.7601 18.4004C48.4801 19.0404 48.8001 19.9204 48.8001 21.1204ZM47.1201 21.1204C47.1201 20.4004 46.9601 19.7604 46.6401 19.3604C46.3201 18.8804 45.8401 18.6404 45.2001 18.6404C44.8001 18.6404 44.4001 18.8004 44.0801 19.0404C43.7601 19.2804 43.5201 19.6803 43.4401 20.0803C43.3601 20.3203 43.3601 20.4804 43.3601 20.5604V21.8404C43.3601 22.4004 43.5201 22.8004 43.8401 23.2004C44.1601 23.6004 44.6401 23.7604 45.1201 23.7604C45.7601 23.7604 46.2401 23.5204 46.5601 23.0404C46.9601 22.5604 47.1201 21.9204 47.1201 21.1204Z" fill="black"/>
<path d="M57.3602 21.1204C57.3602 22.4004 57.0402 23.3604 56.3202 24.1604C55.6802 24.8004 54.9602 25.1204 54.0002 25.1204C53.0402 25.1204 52.3202 24.8003 51.9202 24.0803V28.0004H50.2402V20.0004C50.2402 19.2004 50.2402 18.4004 50.1602 17.5204H51.6002L51.6802 18.7204C52.2402 17.8404 53.0402 17.3604 54.1602 17.3604C55.0402 17.3604 55.7602 17.6804 56.3202 18.4004C57.0402 19.0404 57.3602 19.9204 57.3602 21.1204ZM55.6802 21.1204C55.6802 20.4004 55.5202 19.7604 55.2002 19.3604C54.8802 18.8804 54.4002 18.6404 53.7602 18.6404C53.3602 18.6404 52.9602 18.8004 52.6402 19.0404C52.3202 19.2804 52.0802 19.6803 52.0002 20.0803C51.9202 20.3203 51.9202 20.4804 51.9202 20.5604V21.8404C51.9202 22.4004 52.0802 22.8004 52.4002 23.2004C52.7202 23.6004 53.2002 23.7604 53.6802 23.7604C54.3202 23.7604 54.8002 23.5204 55.1202 23.0404C55.5202 22.5604 55.6802 21.9204 55.6802 21.1204Z" fill="black"/>
<path d="M66.9596 22.0005C66.9596 22.8805 66.6396 23.6005 66.0796 24.1605C65.4397 24.8005 64.4797 25.0405 63.2797 25.0405C62.1597 25.0405 61.2796 24.8005 60.6396 24.4005L61.0396 23.0405C61.7596 23.4405 62.5596 23.6805 63.4396 23.6805C64.0796 23.6805 64.5597 23.5205 64.8797 23.2805C65.1997 22.9605 65.3596 22.6405 65.3596 22.1605C65.3596 21.7605 65.1996 21.3605 64.9596 21.1205C64.6396 20.8005 64.1596 20.5605 63.5196 20.3205C61.6796 19.6805 60.7996 18.6405 60.7996 17.3605C60.7996 16.4805 61.1196 15.8405 61.7596 15.2805C62.3996 14.7205 63.1996 14.4805 64.3196 14.4805C65.2796 14.4805 65.9996 14.6405 66.6396 14.9605L66.2396 16.3205C65.6796 16.0005 65.0396 15.8405 64.2396 15.8405C63.6796 15.8405 63.1997 16.0005 62.8797 16.2405C62.6397 16.4805 62.4797 16.8005 62.4797 17.2005C62.4797 17.6005 62.6396 17.9205 62.9596 18.2405C63.1996 18.4805 63.7597 18.7205 64.4797 19.0405C65.3597 19.3605 65.9997 19.8405 66.4797 20.3205C66.7197 20.7205 66.9596 21.2805 66.9596 22.0005Z" fill="black"/>
<path d="M72.3998 18.7196H70.5598V22.3196C70.5598 23.1996 70.8798 23.6796 71.5198 23.6796C71.8398 23.6796 72.0798 23.6796 72.2398 23.5996L72.3198 24.8796C71.9998 25.0396 71.5998 25.0396 71.0398 25.0396C70.3998 25.0396 69.8398 24.8796 69.5198 24.4796C69.1198 24.0796 68.9598 23.4396 68.9598 22.4796V18.7196H67.8398V17.4396H68.9598V16.0796L70.5598 15.5996V17.4396H72.3998V18.7196Z" fill="black"/>
<path d="M80.6399 21.1203C80.6399 22.2403 80.3199 23.2003 79.6799 23.9203C78.9599 24.6403 78.0799 25.0403 76.9599 25.0403C75.8399 25.0403 74.9599 24.6403 74.3199 23.9203C73.6799 23.2003 73.3599 22.3203 73.3599 21.2003C73.3599 20.0803 73.6799 19.1203 74.3999 18.4003C75.0399 17.6803 75.9999 17.2803 77.1199 17.2803C78.2399 17.2803 79.1199 17.6803 79.7599 18.4003C80.3199 19.1203 80.6399 20.0003 80.6399 21.1203ZM78.8799 21.2003C78.8799 20.4803 78.7199 19.9203 78.3999 19.4403C78.0799 18.8803 77.5199 18.5603 76.8799 18.5603C76.2399 18.5603 75.6799 18.8803 75.3599 19.4403C75.0399 19.9203 74.8799 20.5603 74.8799 21.2003C74.8799 21.9203 75.0399 22.4803 75.3599 22.9603C75.6799 23.5203 76.2399 23.8403 76.8799 23.8403C77.5199 23.8403 77.9999 23.5203 78.3999 22.9603C78.7199 22.4803 78.8799 21.8403 78.8799 21.2003Z" fill="black"/>
<path d="M85.9999 18.8802C85.8399 18.8802 85.6799 18.8002 85.4399 18.8002C84.8799 18.8002 84.3999 19.0402 84.0799 19.4402C83.8399 19.8402 83.6799 20.3202 83.6799 20.8802V24.8002H81.9999V19.6802C81.9999 18.8002 81.9999 18.0802 81.9199 17.3602H83.3599L83.4399 18.8002H83.5199C83.6799 18.3202 83.9999 17.9202 84.3199 17.6002C84.7199 17.3602 85.1199 17.2002 85.5199 17.2002C85.6799 17.2002 85.8399 17.2002 85.9199 17.2002V18.8802H85.9999Z" fill="black"/>
<path d="M93.3597 20.8003C93.3597 21.1203 93.3597 21.3603 93.2797 21.5203H88.3197C88.3197 22.2403 88.5597 22.8003 89.0397 23.2003C89.4397 23.5203 89.9997 23.7603 90.6397 23.7603C91.3597 23.7603 92.0797 23.6803 92.6397 23.4403L92.8797 24.5603C92.1597 24.8803 91.3597 25.0403 90.3997 25.0403C89.2797 25.0403 88.3197 24.7203 87.6797 24.0003C87.0397 23.3603 86.7197 22.4003 86.7197 21.2803C86.7197 20.1603 87.0397 19.2003 87.5997 18.4803C88.2397 17.6803 89.1197 17.2803 90.2397 17.2803C91.2797 17.2803 92.1597 17.6803 92.6397 18.4803C93.1997 19.1203 93.3597 19.9203 93.3597 20.8003ZM91.8397 20.4003C91.8397 19.9203 91.7597 19.5203 91.5197 19.1203C91.1997 18.6403 90.7997 18.4003 90.2397 18.4003C89.6797 18.4003 89.2797 18.6403 88.9597 19.0403C88.7197 19.3603 88.5597 19.8403 88.4797 20.3203H91.8397V20.4003Z" fill="black"/>
<path d="M36.7201 8.23984C36.7201 9.11984 36.4801 9.83984 35.9201 10.3198C35.4401 10.7198 34.7201 10.9598 33.7601 10.9598C33.2801 10.9598 32.8801 10.9598 32.5601 10.8798V5.91984C32.9601 5.83984 33.4401 5.83984 34.0001 5.83984C34.8801 5.83984 35.5201 5.99984 36.0001 6.39984C36.4001 6.79984 36.7201 7.43984 36.7201 8.23984ZM35.8401 8.23984C35.8401 7.67984 35.6801 7.19984 35.3601 6.87984C35.0401 6.55984 34.5601 6.39984 34.0001 6.39984C33.7601 6.39984 33.5201 6.39984 33.3601 6.47984V10.2398C33.4401 10.2398 33.6801 10.2398 33.9201 10.2398C34.5601 10.2398 35.0401 10.0798 35.3601 9.75985C35.6801 9.43985 35.8401 8.87984 35.8401 8.23984Z" fill="black"/>
<path d="M41.2001 9.04012C41.2001 9.60012 41.0401 10.0801 40.7201 10.4001C40.4001 10.8001 39.9201 10.9601 39.3601 10.9601C38.8001 10.9601 38.4001 10.8001 38.0801 10.4001C37.7601 10.0801 37.6001 9.60012 37.6001 9.04012C37.6001 8.48012 37.7601 8.00012 38.0801 7.68012C38.4001 7.28012 38.8801 7.12012 39.4401 7.12012C40.0001 7.12012 40.4001 7.28012 40.7201 7.68012C41.0401 8.00012 41.2001 8.48012 41.2001 9.04012ZM40.4001 9.04012C40.4001 8.72012 40.3201 8.40012 40.1601 8.16012C40.0001 7.84012 39.7601 7.76012 39.4401 7.76012C39.1201 7.76012 38.8801 7.92012 38.7201 8.16012C38.5601 8.40012 38.4801 8.72012 38.4801 9.04012C38.4801 9.36012 38.5601 9.68012 38.7201 9.92012C38.8801 10.2401 39.1201 10.3201 39.4401 10.3201C39.7601 10.3201 40.0001 10.1601 40.1601 9.84012C40.3201 9.68012 40.4001 9.36012 40.4001 9.04012Z" fill="black"/>
<path d="M47.36 7.2002L46.24 10.8802H45.52L45.04 9.2802C44.88 8.8802 44.8 8.4802 44.72 8.0802C44.64 8.4802 44.56 8.8802 44.4 9.2802L43.92 10.8802H43.2L42 7.2002H42.8L43.2 8.9602C43.28 9.3602 43.36 9.7602 43.44 10.1602C43.52 9.8402 43.6 9.4402 43.76 8.9602L44.24 7.2002H44.88L45.36 8.8802C45.52 9.2802 45.6 9.6802 45.68 10.0802C45.76 9.6802 45.84 9.2802 45.92 8.8802L46.4 7.2002H47.36Z" fill="black"/>
<path d="M51.5199 10.88H50.7199V8.80004C50.7199 8.16004 50.4799 7.84004 49.9999 7.84004C49.7599 7.84004 49.5999 7.92004 49.4399 8.08004C49.2799 8.24004 49.1999 8.48004 49.1999 8.72004V10.88H48.3999V8.24004C48.3999 7.92004 48.3999 7.60004 48.3999 7.20004H49.1199V7.76004C49.1999 7.60004 49.3599 7.44004 49.5199 7.28004C49.7599 7.12004 49.9999 7.04004 50.2399 7.04004C50.5599 7.04004 50.8799 7.12004 51.1199 7.36004C51.4399 7.60004 51.5199 8.00004 51.5199 8.56004V10.88Z" fill="black"/>
<path d="M53.76 10.8795H52.96V5.51953H53.76V10.8795Z" fill="black"/>
<path d="M58.56 9.04012C58.56 9.60012 58.4 10.0801 58.08 10.4001C57.76 10.8001 57.28 10.9601 56.72 10.9601C56.16 10.9601 55.76 10.8001 55.44 10.4001C55.12 10.0801 54.96 9.60012 54.96 9.04012C54.96 8.48012 55.12 8.00012 55.44 7.68012C55.76 7.36012 56.24 7.12012 56.8 7.12012C57.36 7.12012 57.76 7.28012 58.08 7.68012C58.4 8.00012 58.56 8.48012 58.56 9.04012ZM57.76 9.04012C57.76 8.72012 57.68 8.40012 57.52 8.16012C57.36 7.84012 57.12 7.76012 56.8 7.76012C56.48 7.76012 56.24 7.92012 56.08 8.16012C55.92 8.40012 55.84 8.72012 55.84 9.04012C55.84 9.36012 55.92 9.68012 56.08 9.92012C56.24 10.2401 56.48 10.3201 56.8 10.3201C57.12 10.3201 57.36 10.1601 57.52 9.84012C57.68 9.68012 57.76 9.36012 57.76 9.04012Z" fill="black"/>
<path d="M62.48 10.8801H61.76L61.68 10.4801C61.44 10.8001 61.04 10.9601 60.64 10.9601C60.32 10.9601 60 10.8801 59.84 10.6401C59.68 10.4001 59.52 10.1601 59.52 9.92012C59.52 9.44012 59.68 9.12012 60.08 8.88012C60.48 8.64012 60.96 8.56012 61.68 8.56012V8.48012C61.68 8.00012 61.44 7.76012 60.96 7.76012C60.56 7.76012 60.32 7.84012 60 8.00012L59.84 7.44012C60.16 7.20012 60.56 7.12012 61.12 7.12012C62.08 7.12012 62.56 7.60012 62.56 8.64012V10.0001C62.48 10.4001 62.48 10.6401 62.48 10.8801ZM61.68 9.60012V9.04012C60.8 9.04012 60.32 9.28012 60.32 9.76012C60.32 9.92012 60.4 10.0801 60.48 10.1601C60.56 10.2401 60.72 10.3201 60.88 10.3201C61.04 10.3201 61.2 10.2401 61.36 10.1601C61.52 10.0801 61.6 9.92012 61.68 9.76012C61.68 9.76012 61.68 9.68012 61.68 9.60012Z" fill="black"/>
<path d="M67.1197 10.8796H66.3997V10.3196C66.1597 10.7996 65.7597 10.9596 65.1997 10.9596C64.7197 10.9596 64.3997 10.7996 64.0797 10.4796C63.7597 10.1596 63.6797 9.67961 63.6797 9.11961C63.6797 8.55961 63.8397 8.07961 64.1597 7.67961C64.4797 7.35961 64.8797 7.19961 65.2797 7.19961C65.7597 7.19961 66.0797 7.35961 66.3197 7.67961V5.59961H67.1197V9.91961C67.1197 10.2396 67.1197 10.5596 67.1197 10.8796ZM66.3197 9.35961V8.71961C66.3197 8.63961 66.3197 8.55961 66.3197 8.47961C66.2397 8.31961 66.1597 8.15961 65.9997 7.99961C65.8397 7.83961 65.6797 7.83961 65.4397 7.83961C65.1197 7.83961 64.8797 7.99961 64.7197 8.23961C64.5597 8.47961 64.4797 8.79961 64.4797 9.19961C64.4797 9.59961 64.5597 9.83961 64.7197 10.0796C64.8797 10.3196 65.1197 10.4796 65.4397 10.4796C65.6797 10.4796 65.9197 10.3996 66.0797 10.1596C66.2397 9.83961 66.3197 9.59961 66.3197 9.35961Z" fill="black"/>
<path d="M74.08 9.04012C74.08 9.60012 73.92 10.0801 73.6 10.4001C73.28 10.8001 72.8 10.9601 72.24 10.9601C71.68 10.9601 71.28 10.8001 70.96 10.4001C70.64 10.0801 70.48 9.60012 70.48 9.04012C70.48 8.48012 70.64 8.00012 70.96 7.68012C71.28 7.28012 71.76 7.12012 72.32 7.12012C72.88 7.12012 73.28 7.28012 73.6 7.68012C73.92 8.00012 74.08 8.48012 74.08 9.04012ZM73.2 9.04012C73.2 8.72012 73.12 8.40012 72.96 8.16012C72.8 7.84012 72.56 7.76012 72.24 7.76012C71.92 7.76012 71.68 7.92012 71.52 8.16012C71.36 8.40012 71.28 8.72012 71.28 9.04012C71.28 9.36012 71.36 9.68012 71.52 9.92012C71.68 10.2401 71.92 10.3201 72.24 10.3201C72.56 10.3201 72.8 10.1601 72.96 9.84012C73.12 9.68012 73.2 9.36012 73.2 9.04012Z" fill="black"/>
<path d="M78.4799 10.88H77.6799V8.80004C77.6799 8.16004 77.4399 7.84004 76.9599 7.84004C76.7199 7.84004 76.5599 7.92004 76.3999 8.08004C76.2399 8.24004 76.1599 8.48004 76.1599 8.72004V10.88H75.3599V8.24004C75.3599 7.92004 75.3599 7.60004 75.3599 7.20004H76.0799V7.76004C76.1599 7.60004 76.3199 7.44004 76.4799 7.28004C76.7199 7.12004 76.9599 7.04004 77.1999 7.04004C77.5199 7.04004 77.8399 7.12004 78.0799 7.36004C78.3999 7.60004 78.4799 8.00004 78.4799 8.56004V10.88Z" fill="black"/>
<path d="M83.9198 7.84031H83.0398V9.60031C83.0398 10.0803 83.1998 10.2403 83.5198 10.2403C83.6798 10.2403 83.7598 10.2403 83.9198 10.2403V10.8803C83.7598 10.9603 83.5198 10.9603 83.2798 10.9603C82.9598 10.9603 82.7198 10.8803 82.5598 10.6403C82.3998 10.4803 82.3198 10.0803 82.3198 9.68031V7.84031H81.7598V7.20031H82.3198V6.56031L83.1198 6.32031V7.20031H83.9998V7.84031H83.9198Z" fill="black"/>
<path d="M88.2401 10.8795H87.4401V8.79953C87.4401 8.15953 87.2001 7.83953 86.7201 7.83953C86.3201 7.83953 86.0801 7.99953 85.9201 8.39953C85.9201 8.47953 85.9201 8.55953 85.9201 8.71953V10.8795H85.1201V5.51953H85.9201V7.75953C86.1601 7.35953 86.5601 7.11953 87.0401 7.11953C87.3601 7.11953 87.6801 7.19953 87.8401 7.43953C88.0801 7.67953 88.2401 8.15953 88.2401 8.63953V10.8795Z" fill="black"/>
<path d="M92.6399 8.8802C92.6399 9.0402 92.6399 9.1202 92.6399 9.2802H90.2399C90.2399 9.6802 90.3999 9.9202 90.5599 10.0802C90.7999 10.2402 91.0399 10.3202 91.3599 10.3202C91.7599 10.3202 92.0799 10.2402 92.3199 10.1602L92.4799 10.7202C92.1599 10.8802 91.7599 10.9602 91.2799 10.9602C90.7199 10.9602 90.2399 10.8002 89.9199 10.4802C89.5999 10.1602 89.4399 9.6802 89.4399 9.1202C89.4399 8.5602 89.5999 8.0802 89.9199 7.7602C90.2399 7.3602 90.6399 7.2002 91.1999 7.2002C91.7599 7.2002 92.1599 7.3602 92.3999 7.7602C92.5599 8.0002 92.6399 8.4002 92.6399 8.8802ZM91.9199 8.64019C91.9199 8.40019 91.8399 8.1602 91.7599 8.0002C91.5999 7.7602 91.4399 7.6802 91.1199 7.6802C90.8799 7.6802 90.6399 7.7602 90.4799 8.0002C90.3199 8.1602 90.2399 8.40019 90.2399 8.64019H91.9199Z" fill="black"/>
</svg>
